#!OML:ASF E:\Style4\Style4.ASF
:FULLY-SPECIFIED
:DEGREES
3474
root -0.318345 17.5111 -2.84192 4.99013 -0.989708 1.50428
lowerback 13.1884 1.83703 -0.227099
upperback 5.96482 2.40166 0.592122
thorax -1.16437 1.18394 0.409725
lowerneck -1.08664 -4.99727 -6.96127
upperneck 3.1905 -6.67982 5.26615
head 1.65831 -3.34157 2.76989
rclavicle 1.66979e-014 -6.75868e-015
rhumerus -319.635 -1.26955 -428.164
rradius 34.5065
rwrist -63.3364
rhand -9.03856 9.5499
rfingers 7.12502
rthumb 16.9093 -19.734
lclavicle 1.66979e-014 -6.75868e-015
lhumerus 39.3203 -15.7506 56.6486
lradius 50.684
lwrist 69.1915
lhand -4.50152 36.5385
lfingers 7.12502
lthumb 21.2723 65.3911
rfemur -27.2095 -0.358029 17.4336
rtibia 41.1645
rfoot -18.097 -10.3629
rtoes -9.45349
lfemur -24.6451 2.47356 -20.3394
ltibia 40.3605
lfoot -20.1635 8.89797
ltoes -13.1182
3475
root -0.319034 17.5029 -2.83769 4.95643 -1.02393 1.41457
lowerback 13.2458 1.81742 -0.14749
upperback 6.00817 2.3848 0.596434
thorax -1.14659 1.17664 0.370922
lowerneck -0.94237 -4.94599 -6.93486
upperneck 3.17629 -6.61584 5.14474
head 1.61696 -3.31266 2.72961
rclavicle -6.95746e-015 2.78299e-015
rhumerus -321.096 -0.245643 -427.255
rradius 35.7419
rwrist -64.4521
rhand -9.6244 9.39765
rfingers 7.12502
rthumb 16.3453 -19.9336
lclavicle -6.95746e-015 2.78299e-015
lhumerus 38.2112 -16.2661 56.7424
lradius 51.6331
lwrist 69.647
lhand -5.05282 36.7233
lfingers 7.12502
lthumb 20.7427 65.6347
rfemur -27.2403 -0.328443 17.5427
rtibia 41.297
rfoot -18.1206 -10.4397
rtoes -9.86485
lfemur -24.6814 2.45632 -20.2345
ltibia 40.5307
lfoot -20.236 8.93314
ltoes -13.0265
3476
root -0.318075 17.4951 -2.83141 4.93696 -1.06981 1.41578
lowerback 13.2571 1.7801 -0.173792
upperback 6.05572 2.3322 0.597393
thorax -1.10349 1.14987 0.394665
lowerneck -0.841139 -4.85343 -6.98981
upperneck 3.18889 -6.49416 5.05259
head 1.59314 -3.25513 2.71459
rclavicle -1.39149e-015 -2.38542e-015
rhumerus -322.437 0.912076 -426.351
rradius 36.9177
rwrist -65.6609
rhand -10.2544 9.37945
rfingers 7.12502
rthumb 15.7387 -20.0006
lclavicle -1.39149e-015 -2.38542e-015
lhumerus 37.0023 -16.7002 56.8873
lradius 52.6278
lwrist 70.1221
lhand -5.88272 36.9149
lfingers 7.12502
lthumb 19.9451 65.9114
rfemur -27.2749 -0.301316 17.5359
rtibia 41.4217
rfoot -18.1783 -10.4292
rtoes -9.94592
lfemur -24.697 2.41272 -20.2354
ltibia 40.6577
lfoot -20.3247 8.94881
ltoes -12.8128
3477
root -0.316587 17.4903 -2.82232 4.90936 -1.10902 1.4413
lowerback 13.2217 1.7596 -0.22033
upperback 6.14205 2.29911 0.590541
thorax -0.995328 1.13251 0.421171
lowerneck -0.901741 -4.7776 -6.99781
upperneck 3.24954 -6.38662 4.95518
head 1.61258 -3.20247 2.68454
rclavicle -2.84262e-014 1.31198e-014
rhumerus -323.57 1.81504 -425.771
rradius 37.8787
rwrist -66.5322
rhand -10.7221 9.45465
rfingers 7.12502
rthumb 15.2882 -19.9603
lclavicle -2.84262e-014 1.31198e-014
lhumerus 35.8662 -17.1314 57.0968
lradius 53.6866
lwrist 70.6033
lhand -6.7749 37.082
lfingers 7.12502
lthumb 19.0873 66.1654
rfemur -27.2668 -0.306558 17.5048
rtibia 41.5154
rfoot -18.2383 -10.4372
rtoes -9.88527
lfemur -24.6767 2.39637 -20.2683
ltibia 40.7485
lfoot -20.4615 8.90266
ltoes -12.3545
3478
root -0.312713 17.4878 -2.81112 4.87778 -1.1668 1.49927
lowerback 13.1695 1.77833 -0.251049
upperback 6.23378 2.31892 0.553793
thorax -0.871193 1.14212 0.401088
lowerneck -0.909675 -4.73529 -6.97739
upperneck 3.24294 -6.32791 4.9018
head 1.60481 -3.1735 2.66439
rclavicle -1.70955e-014 9.54166e-015
rhumerus -324.663 2.35594 -425.527
rradius 38.6933
rwrist -66.971
rhand -10.813 9.49601
rfingers 7.12502
rthumb 15.2006 -19.9256
lclavicle -1.70955e-014 9.54166e-015
lhumerus 34.8007 -17.5869 57.4019
lradius 54.7938
lwrist 71.0416
lhand -6.99535 37.0174
lfingers 7.12502
lthumb 18.8753 66.1216
rfemur -27.226 -0.323788 17.4295
rtibia 41.5802
rfoot -18.2965 -10.4269
rtoes -10.1565
lfemur -24.6145 2.38328 -20.3512
ltibia 40.7973
lfoot -20.6001 8.94348
ltoes -12.0206
3479
root -0.308362 17.4858 -2.80022 4.83214 -1.25411 1.49572
lowerback 13.1446 1.81689 -0.200863
upperback 6.3214 2.37403 0.514245
thorax -0.762857 1.17089 0.327043
lowerneck -0.870772 -4.73121 -6.92507
upperneck 3.20664 -6.32325 4.84895
head 1.58132 -3.17146 2.63828
rclavicle -6.55989e-015 7.95139e-016
rhumerus -325.729 2.70083 -425.459
rradius 39.4711
rwrist -67.2254
rhand -10.7745 9.42883
rfingers 7.12502
rthumb 15.2377 -19.99
lclavicle -6.55989e-015 7.95139e-016
lhumerus 33.7824 -18.0254 57.8195
lradius 55.7848
lwrist 71.3628
lhand -7.03732 36.8791
lfingers 7.12502
lthumb 18.8349 65.9872
rfemur -27.1619 -0.282626 17.4194
rtibia 41.6107
rfoot -18.3803 -10.4011
rtoes -10.4293
lfemur -24.5193 2.38839 -20.3614
ltibia 40.823
lfoot -20.7007 8.99841
ltoes -12.0635
3480
root -0.304943 17.4843 -2.78954 4.79481 -1.35038 1.43119
lowerback 13.1471 1.86915 -0.0665224
upperback 6.37487 2.45658 0.460947
thorax -0.700884 1.21534 0.186337
lowerneck -0.829304 -4.76634 -6.85279
upperneck 3.20379 -6.37457 4.86187
head 1.5739 -3.19641 2.62887
rclavicle 1.39149e-015 -2.38542e-015
rhumerus -326.883 3.10489 -425.294
rradius 40.3685
rwrist -67.6847
rhand -10.7618 9.31718
rfingers 7.12502
rthumb 15.2499 -20.1007
lclavicle 1.39149e-015 -2.38542e-015
lhumerus 32.8457 -18.5707 58.0208
lradius 56.74
lwrist 71.7628
lhand -7.24544 36.9212
lfingers 7.12502
lthumb 18.6348 66.0487
rfemur -27.0974 -0.224842 17.4823
rtibia 41.6189
rfoot -18.4352 -10.3552
rtoes -10.3536
lfemur -24.4167 2.44274 -20.3053
ltibia 40.833
lfoot -20.7897 9.09321
ltoes -12.4988
3481
root -0.301099 17.484 -2.78059 4.79178 -1.39039 1.39827
lowerback 13.1517 1.86848 0.00838395
upperback 6.38818 2.46363 0.437914
thorax -0.685285 1.22066 0.11963
lowerneck -0.734431 -4.74736 -6.82798
upperneck 3.14887 -6.35339 4.83444
head 1.53564 -3.18668 2.61831
rclavicle 2.76311e-014 -7.55382e-015
rhumerus -328.001 3.73648 -425.029
rradius 41.3137
rwrist -68.317
rhand -10.8729 9.2434
rfingers 7.12502
rthumb 15.1429 -20.1826
lclavicle 2.76311e-014 -7.55382e-015
lhumerus 31.8593 -19.0728 58.0806
lradius 57.6424
lwrist 72.1936
lhand -7.50594 36.9038
lfingers 7.12502
lthumb 18.3842 66.0551
rfemur -27.066 -0.199581 17.5046
rtibia 41.6177
rfoot -18.4373 -10.3479
rtoes -10.3623
lfemur -24.358 2.46643 -20.2864
ltibia 40.8292
lfoot -20.9033 9.0689
ltoes -12.0057
3482
root -0.297271 17.4849 -2.77345 4.80317 -1.43625 1.4295
lowerback 13.1554 1.86582 -0.030613
upperback 6.39931 2.45526 0.428534
thorax -0.676818 1.21578 0.13302
lowerneck -0.627565 -4.69408 -6.8339
upperneck 3.01086 -6.28568 4.82873
head 1.46763 -3.15357 2.62282
rclavicle 9.93923e-016 3.97569e-016
rhumerus -328.991 4.3043 -424.858
rradius 42.1105
rwrist -68.8428
rhand -10.8873 9.27403
rfingers 7.12502
rthumb 15.129 -20.153
lclavicle 9.93923e-016 3.97569e-016
lhumerus 30.9354 -19.439 58.2233
lradius 58.4209
lwrist 72.5125
lhand -7.60041 36.7966
lfingers 7.12502
lthumb 18.2933 65.9564
rfemur -27.0608 -0.176559 17.4492
rtibia 41.6268
rfoot -18.4889 -10.3062
rtoes -10.2796
lfemur -24.3251 2.44938 -20.3398
ltibia 40.8159
lfoot -20.9641 9.09058
ltoes -11.8317
